<?xml version="1.0" encoding="UTF-8"?>
<svg id="Layer_1" data-name="Layer 1" xmlns="http://www.w3.org/2000/svg" viewBox="0 0 595.71 595.28">
  <defs>
    <style>
      .cls-1 {
        fill: #ed256a;
      }

      .cls-2 {
        fill: #f15846;
      }

      .cls-3 {
        fill: #28273a;
      }

      .cls-4 {
        fill: #faa845;
      }

      .cls-5 {
        fill: #f26d61;
      }

      .cls-6 {
        fill: #3bba98;
      }

      .cls-7 {
        fill: #3c54a5;
      }
    </style>
  </defs>
  <path class="cls-4" d="m298.79,594.83c-14.53,1.13-28.97-.34-43.3-2.39-12.71-1.82-25.5-3.86-37.86-7.29-11.7-3.25-22.98-8.24-34.3-12.82-22.69-9.17-44.5-20.26-63.65-35.93-20.97-17.15-40.3-36.11-57.09-57.79-18.28-23.6-33.68-48.96-43.79-77.28-4.72-13.21-8.46-26.9-11.61-40.78C2.33,339.2.12,317.79.08,296c55.7-.06,111.4-.11,167.1-.17.56,9.06-.08,18.42,1.92,27.12,4.53,19.74,10.94,38.8,23.34,55.25,11.15,14.8,23.69,27.68,39.79,36.74,20.51,11.54,42.25,17.99,65.66,18.21-.75,4.69.89,9.23.9,13.84.06,49.28.02,98.55,0,147.83Z"/>
  <path class="cls-2" d="m167.17,295.83c-55.7.06-111.4.11-167.1.17-.03-3.91-.05-7.82-.08-11.73,2.28-.49,2.08-2.33,2.14-4.09.43-13.14,3.09-25.94,5.3-38.82,1.02-5.9,4.1-11.5,2.84-17.78,1.13-4.28,2.26-8.56,3.39-12.84,4.08-4.2,5.93-9.27,5.55-15.2,2.68-6.61,5.35-13.22,8.03-19.83,5.16-5.59,8.67-12.09,10.22-19.67,0,0,.06-.15.06-.15,3.72-.9,4.27-3.83,4.27-7.11,0,0,.01-.02.01-.02,1.01-.39,1.3-1.19,1.21-2.22,0,0,.03-.06.03-.06,2.31-.11,2.35-1.74,2.17-3.5,0,0,.04-.06.04-.06,2.88-.28,3.06-2.57,3.35-4.78.03-.33.13-.64.3-.92,3.72-1.4,5.12-4.41,5.4-8.21,0,0,.05-.07.05-.07,1.69-.04,2.37-.86,1.86-2.59,0,0,.05-.04.05-.04,2.94-.54,3.84-2.6,3.78-5.37,0,0,.07-.12.07-.12.36-.34.72-.68,1.09-1.02,0,0,.17-.05.17-.05.34-.29.68-.59,1.03-.88,0,0,.23-.29.23-.29.98-.53,1.73-1.25,1.92-2.44,1.12-1.55,2.25-3.1,3.37-4.66.88-.41,1.26-1.14,1.25-2.11,0,0,.13-.18.13-.18.31-.37.61-.74.92-1.11,0,0,.08-.1.08-.1,2.65.23,3.66-1.02,3.11-3.67,0,0,.01,0,.01,0,.7-.09,1.08-.49,1.1-1.23,0,0,.01-.03.01-.03,1.93.61,2.9-.51,4.23-1.86,7.4-7.52,14.03-16.12,24.48-19.66,1.16-.39,2.17-1.48,3.05-2.44,3.75-4.1,8.58-6.82,12.8-10.26,4.39-3.58,10.32-2.97,16.32-1.98,13.31,2.19,26.85,2.84,40.38,2.7,3.15-.03,6.47.71,9.13,2.56,3.22,2.23,6.8,3.45,10.43,4.19,5.74,1.16,11.25,2.42,15.72,6.71,1.53,1.47,3.7,1.72,5.86,1.65,10.41-.32,19.72,4.27,29.3,7.4,5.08,1.66,10.07,3.81,14.34,7.65,3.82,3.43,9.47,1.79,14.02,3.62,11.19,4.51,22.46,8.7,34.21,11.46,8.74,2.05,17.24,4.37,25.48,8.69,9.19,4.82,20.09,5.65,29.4,10.81.93.52,2.21.63,3.3.53,12.49-1.16,23.86,4.39,35.75,6.68,12.05,2.32,23.2,3.74,34.69-2.41,4.22-2.26,8.85-5.97,14.51-4.08-1.66,1.84-3.3,3.69-4.97,5.52-7.97,8.72-16.91,16.48-24.11,25.96-11.86,12.15-23.72,24.29-35.58,36.44-1.23.3-2.18.38-3.34-.77-9.43-9.37-20.7-16.05-31.82-22.95-.57-.36-1.15-.71-1.72-1.07l-.26.17-.23-.21c-.62-.34-1.23-.69-1.85-1.03l-.26.18-.25-.19c-.42-1.19-1.34-1.29-2.37-1.19l.13.08c-.59-1.34-1.73-1.31-2.89-1.23l-.44.03c-.59-1.31-1.72-1.3-2.87-1.24l-.3.16-.25-.22c-.53-1.08-1.45-1.17-2.46-1.03l.13.09c-.86-1.88-2.5-1.32-3.95-1.35l-.41.05c-.58-1.11-1.49-1.31-2.59-1.02l-.09.2c.32-2.09-.81-2.57-2.57-2.8-13.35-1.72-26.71-3.06-40.19-2.3-1.7.1-4-.81-4.33,2.23-9.6,1.64-19,3.78-28.27,7.2-11.84,4.37-23.38,8.78-33.22,17.2-7.5,6.41-15.39,12.32-21.63,20.17-19.39,24.4-30.47,52.14-31.82,83.81Z"/>
  <path class="cls-5" d="m451.96,134.97c-5.66-1.9-10.29,1.82-14.51,4.08-11.49,6.15-22.64,4.74-34.69,2.41-11.88-2.29-23.25-7.84-35.75-6.68-1.08.1-2.37-.01-3.3-.53-9.3-5.16-20.21-5.99-29.4-10.81-8.23-4.32-16.74-6.64-25.48-8.69-11.75-2.76-23.02-6.95-34.21-11.46-4.55-1.84-10.2-.19-14.02-3.62-4.28-3.84-9.26-5.99-14.34-7.65-9.58-3.13-18.89-7.72-29.3-7.4-2.16.07-4.33-.18-5.86-1.65-4.47-4.29-9.99-5.55-15.72-6.71-3.63-.73-7.21-1.95-10.43-4.19-2.67-1.85-5.99-2.59-9.13-2.56-13.54.14-27.07-.51-40.38-2.7-5.99-.98-11.93-1.6-16.32,1.98-4.22,3.44-9.06,6.16-12.8,10.26-.88.96-1.9,2.05-3.05,2.44-10.45,3.54-17.08,12.14-24.48,19.66-1.33,1.35-2.3,2.47-4.23,1.86,10.6-14.07,23.66-25.52,37.01-36.6,14.95-12.41,31.2-22.8,48.26-31.85,26.58-14.1,54.37-24.29,83.96-29.46,24.01-4.2,48.09-6.26,72.33-4.45,10.34.77,20.71,2.37,31.03,3.93,16.15,2.44,31.81,6.2,47.01,11.8,15.68,5.77,30.95,12.47,45.85,20.49,21.05,11.33,40.31,24.89,58.37,40.54,2.14,1.86,4.02,4.05,6.01,6.08-15.57,17.57-32.79,33.41-48.92,50.39-1.38-.38-2.37.6-3.49,1.09Z"/>
  <path class="cls-6" d="m455.46,133.89c16.13-16.98,33.36-32.83,48.92-50.39,9.03,6.27,15.66,15.1,22.62,23.42,14.18,16.97,26.23,35.55,36.1,55.52,11.69,23.66,21.18,48.26,26.04,74.43,3.79,20.43,7.26,40.97,6.44,61.94-1.5-.14-2.99-.4-4.49-.4-55.32-.01-110.64,0-165.96.01-.59-11.98-2.04-23.72-5.82-35.23-5.05-15.39-11.61-29.85-20.16-43.53-3.66-5.86-9.88-9.72-11.84-16.77,11.86-12.15,23.72-24.29,35.57-36.43,12.06-9.57,22.21-21.19,32.58-32.57Z"/>
  <path class="cls-7" d="m425.12,298.42c55.32-.01,110.64-.02,165.96-.01,1.5,0,2.99.26,4.49.4.75,16.6-1.68,32.88-4.21,49.21-7.91,51.18-29.32,95.91-60.33,136.1-6.43,8.34-13.7,15.99-20.62,23.93-1.12,1.28-2.23,2.67-4.05,2.98-14.87-15.4-29.53-31.03-44.67-46.14-19.47-19.45-37.37-40.52-57.64-59.16-4.84-4.45-9.75-9.1-13.41-14.82.69-2.02,1.69-3.8,3-5.52,9.35-12.37,17.54-25.4,22.87-40.27,5.42-15.12,7.06-30.87,8.6-46.69Z"/>
  <path class="cls-1" d="m390.65,390.9c3.66,5.72,8.57,10.36,13.41,14.81,20.27,18.64,38.16,39.71,57.64,59.16,15.14,15.12,29.8,30.74,44.67,46.14-11,13.16-24.8,22.84-38.44,32.67-15.39,11.1-32.31,19.47-49.35,27.36-11.31,5.23-23.4,8.63-35.35,12.24-17.71,5.35-35.76,9.04-54.01,11.35-9.46,1.2-19.16.31-28.76.37.99-4.81-.22-9.58-.22-14.38.05-49.14-.06-98.29-.12-147.43,4.76.27,9.22-1.49,13.84-2.16,20.52-2.98,39.04-11,56.08-23.08,7.3-5.18,13.37-11.86,20.62-17.06Z"/>
  <path class="cls-2" d="m300.11,433.2c.06,49.14.17,98.29.12,147.43,0,4.8,1.21,9.58.22,14.38-.55-.06-1.11-.12-1.66-.19.01-49.28.06-98.55,0-147.83,0-4.61-1.65-9.15-.9-13.84.74.01,1.48.03,2.23.04Z"/>
  <path class="cls-5" d="m10.28,223.57c1.26,6.28-1.82,11.89-2.84,17.78-2.22,12.89-4.88,25.69-5.3,38.82-.06,1.76.15,3.6-2.14,4.09.27-20.8,4.12-40.96,10.28-60.7Z"/>
  <path class="cls-5" d="m37.47,156.03c-1.55,7.58-5.05,14.08-10.22,19.67,2.2-7.22,6.42-13.33,10.22-19.67Z"/>
  <path class="cls-5" d="m19.22,195.53c.38,5.93-1.47,11-5.55,15.2,1.71-5.12,2.96-10.42,5.55-15.2Z"/>
  <path class="cls-5" d="m54.32,128.99c-.28,3.8-1.69,6.81-5.4,8.21.99-3.3,2.93-5.94,5.4-8.21Z"/>
  <path class="cls-5" d="m41.8,148.76c0,3.28-.56,6.21-4.27,7.11.85-2.74,2.21-5.15,4.27-7.11Z"/>
  <path class="cls-5" d="m60.06,120.92c.06,2.78-.84,4.84-3.78,5.37.56-2.31,1.95-4.01,3.78-5.37Z"/>
  <path class="cls-5" d="m48.62,138.12c-.28,2.21-.47,4.5-3.35,4.78.52-2.03,1.2-3.95,3.35-4.78Z"/>
  <path class="cls-5" d="m73.43,104.29c.55,2.66-.46,3.9-3.11,3.67.49-1.71,1.54-2.93,3.11-3.67Z"/>
  <path class="cls-5" d="m45.23,142.96c.17,1.76.14,3.38-2.17,3.5.15-1.55.8-2.76,2.17-3.5Z"/>
  <path class="cls-5" d="m56.23,126.33c.5,1.72-.17,2.55-1.86,2.59.13-1.24.75-2.1,1.86-2.59Z"/>
  <path class="cls-5" d="m64.56,116.12c-.19,1.19-.94,1.91-1.92,2.44-.08-1.42.69-2.12,1.92-2.44Z"/>
  <path class="cls-5" d="m43.02,146.52c.1,1.03-.2,1.83-1.21,2.22-.05-1,.25-1.8,1.21-2.22Z"/>
  <path class="cls-5" d="m69.18,109.35c.01.97-.36,1.7-1.25,2.11-.3-1.15.32-1.73,1.25-2.11Z"/>
  <path class="cls-5" d="m62.41,118.86c-.34.29-.68.59-1.03.88.34-.29.68-.59,1.03-.88Z"/>
  <path class="cls-5" d="m70.23,108.06c-.31.37-.61.74-.92,1.11-.04-.68.26-1.05.92-1.11Z"/>
  <path class="cls-5" d="m74.54,103.06c-.02.74-.4,1.14-1.1,1.23.37-.41.73-.82,1.1-1.23Z"/>
  <path class="cls-5" d="m61.22,119.78c-.36.34-.72.68-1.09,1.02.04-.7.32-1.14,1.09-1.02Z"/>
  <path class="cls-3" d="m300.11,433.2c-.74-.01-1.49-.03-2.23-.04-23.41-.23-45.15-6.68-65.66-18.21-16.11-9.06-28.64-21.93-39.79-36.74-12.4-16.45-18.8-35.51-23.34-55.25-2-8.71-1.36-18.06-1.92-27.12,1.35-31.68,12.43-59.42,31.82-83.82,6.24-7.85,14.13-13.76,21.63-20.17,9.85-8.42,21.39-12.83,33.22-17.2,9.27-3.43,18.67-5.56,28.27-7.2,15.86-1.99,31.49.16,47.09,2.88,0,0,.09-.2.09-.2.53,1.23,1.59,1.04,2.59,1.02,0,0,.41-.05.41-.05,1.05,1.29,2.49,1.35,3.95,1.35,0,0-.13-.09-.13-.09.55,1.04,1.48,1.09,2.46,1.03l.25.22s.3-.16.3-.16c.72,1.01,1.74,1.24,2.86,1.24,0,0,.44-.03.44-.03.7,1.08,1.75,1.26,2.89,1.23,0,0-.13-.08-.13-.08.49,1.03,1.4,1.16,2.37,1.19l.25.19s.26-.18.26-.18c.62.34,1.23.69,1.85,1.03l.23.21s.26-.17.26-.17c.57.36,1.15.71,1.72,1.07,11.12,6.9,22.39,13.59,31.82,22.95,1.16,1.16,2.11,1.07,3.34.77,1.96,7.05,8.18,10.91,11.84,16.77,8.54,13.67,15.11,28.14,20.16,43.53,3.77,11.51,5.23,23.25,5.82,35.23-1.54,15.82-3.18,31.57-8.6,46.69-5.33,14.88-13.52,27.91-22.87,40.27-1.31,1.73-2.31,3.5-3,5.52-7.25,5.2-13.32,11.88-20.62,17.06-17.04,12.08-35.56,20.1-56.08,23.08-4.62.67-9.08,2.43-13.84,2.16Z"/>
  <path class="cls-4" d="m455.46,133.89c-10.37,11.38-20.52,23-32.58,32.57,7.21-9.48,16.14-17.25,24.12-25.97,1.67-1.83,3.31-3.68,4.97-5.52,1.13-.49,2.11-1.47,3.5-1.08Z"/>
  <path class="cls-5" d="m329.21,170.32c-15.6-2.71-31.22-4.87-47.09-2.88.33-3.04,2.63-2.13,4.33-2.23,13.48-.76,26.84.58,40.19,2.3,1.76.23,2.89.7,2.57,2.8Z"/>
  <path class="cls-5" d="m336.25,172.45c-1.46,0-2.9-.07-3.95-1.35,1.45.04,3.1-.53,3.95,1.35Z"/>
  <path class="cls-5" d="m331.89,171.14c-1,.02-2.05.21-2.59-1.02,1.09-.29,2.01-.09,2.59,1.02Z"/>
  <path class="cls-5" d="m338.59,173.39c-.98.06-1.91,0-2.46-1.03,1.01-.13,1.93-.05,2.46,1.03Z"/>
  <path class="cls-5" d="m342.01,174.69c-1.12,0-2.15-.23-2.86-1.24,1.15-.06,2.27-.07,2.86,1.24Z"/>
  <path class="cls-5" d="m345.34,175.9c-1.14.03-2.19-.16-2.89-1.23,1.16-.08,2.3-.1,2.89,1.23Z"/>
  <path class="cls-5" d="m347.58,177.01c-.96-.03-1.88-.16-2.37-1.19,1.02-.1,1.95,0,2.37,1.19Z"/>
  <path class="cls-5" d="m349.94,178.05c-.62-.34-1.23-.69-1.85-1.03.62.34,1.23.69,1.85,1.03Z"/>
  <path class="cls-5" d="m352.15,179.16c-.57-.35-1.14-.71-1.72-1.07.57.35,1.14.71,1.72,1.07Z"/>
</svg>